<svg width="35" height="32" viewBox="0 0 35 32" fill="none" xmlns="http://www.w3.org/2000/svg">
<path id="Vector" d="M32.0906 18.3093L34.9631 5.67046C35.1705 4.7579 34.4769 3.88892 33.5411 3.88892H9.6741L9.11714 1.16609C8.97835 0.487418 8.38117 3.05176e-05 7.6884 3.05176e-05H1.45833C0.652908 3.05176e-05 0 0.652939 0 1.45836V2.43059C0 3.23601 0.652908 3.88892 1.45833 3.88892H5.7047L9.97324 24.7574C8.95204 25.3447 8.26389 26.4458 8.26389 27.7084C8.26389 29.5877 9.78736 31.1111 11.6667 31.1111C13.546 31.1111 15.0694 29.5877 15.0694 27.7084C15.0694 26.756 14.6777 25.8955 14.0472 25.2778H26.7861C26.1556 25.8955 25.7639 26.756 25.7639 27.7084C25.7639 29.5877 27.2874 31.1111 29.1667 31.1111C31.046 31.1111 32.5695 29.5877 32.5695 27.7084C32.5695 26.3611 31.7863 25.1969 30.6506 24.6456L30.9858 23.1705C31.1932 22.2579 30.4996 21.3889 29.5638 21.3889H13.2536L12.8559 19.4445H30.6686C31.3495 19.4445 31.9398 18.9733 32.0906 18.3093Z" fill="#A4A4A4"/>
</svg>
